<svg xmlns="http://www.w3.org/2000/svg" width="51.486" height="48.609" viewBox="0 0 51.486 48.609">
  <text id="_4G" data-name="4G" transform="translate(0 41.609)" fill="#6e7488" font-size="28" font-family="SegoeUI-Bold, Segoe UI" font-weight="700"><tspan x="0" y="0">4G</tspan></text>
  <path id="Icon_metro-wifi-full" data-name="Icon metro-wifi-full" d="M9.593,19.638l1.391,1.391a5,5,0,0,1,7.074,0l1.391-1.391a6.969,6.969,0,0,0-9.856,0Zm-3.17-3.171,1.393,1.393a9.469,9.469,0,0,1,13.409,0l1.393-1.393a11.452,11.452,0,0,0-16.2,0Zm8.1-7.836A15.884,15.884,0,0,0,3.253,13.3l1.394,1.394a13.947,13.947,0,0,1,19.748,0L25.79,13.3A15.884,15.884,0,0,0,14.522,8.631Zm0,13.053A1.474,1.474,0,1,0,16,23.157,1.474,1.474,0,0,0,14.522,21.684Z" transform="translate(36.875 -8.755) rotate(39)" fill="#f4a310"/>
</svg>
