<svg xmlns="http://www.w3.org/2000/svg" width="19.5" height="22.071" viewBox="0 0 19.5 22.071">
  <path id="Icon_awesome-bell" data-name="Icon awesome-bell" d="M9,20.571A2.571,2.571,0,0,0,11.57,18H6.43A2.571,2.571,0,0,0,9,20.571Zm8.654-6.015c-.776-.834-2.229-2.089-2.229-6.2a6.345,6.345,0,0,0-5.14-6.234V1.286a1.285,1.285,0,1,0-2.57,0v.837a6.345,6.345,0,0,0-5.14,6.234c0,4.11-1.452,5.365-2.229,6.2A1.255,1.255,0,0,0,0,15.429a1.287,1.287,0,0,0,1.29,1.286H16.71A1.287,1.287,0,0,0,18,15.429,1.255,1.255,0,0,0,17.654,14.556Z" transform="translate(0.75 0.75)" fill="none" stroke="#fff" stroke-width="1.5" opacity="0.97"/>
</svg>
