<svg xmlns="http://www.w3.org/2000/svg" width="27.5" height="22" viewBox="0 0 27.5 22">
  <path id="Icon_material-confirmation-number" data-name="Icon material-confirmation-number" d="M30.5,14.25V8.75A2.749,2.749,0,0,0,27.75,6h-22A2.738,2.738,0,0,0,3.014,8.75v5.5A2.75,2.75,0,0,1,3,19.75v5.5A2.758,2.758,0,0,0,5.75,28h22a2.758,2.758,0,0,0,2.75-2.75v-5.5a2.75,2.75,0,0,1,0-5.5ZM18.125,24.563h-2.75v-2.75h2.75Zm0-6.187h-2.75v-2.75h2.75Zm0-6.187h-2.75V9.438h2.75Z" transform="translate(-3 -6)" fill="#858585"/>
</svg>
