<svg xmlns="http://www.w3.org/2000/svg" width="45.001" height="41.312" viewBox="0 0 45.001 41.312">
  <path id="Icon_awesome-hand-holding-heart" data-name="Icon awesome-hand-holding-heart" d="M21.507,19.57a1.361,1.361,0,0,0,1.992,0l8.507-8.922a6.476,6.476,0,0,0-.437-9.281,5.938,5.938,0,0,0-8.195.6l-.875.914-.867-.906a5.932,5.932,0,0,0-8.195-.609A6.482,6.482,0,0,0,13,10.648Zm22.655,6.062a2.586,2.586,0,0,0-3.328,0l-7.218,5.773A4.974,4.974,0,0,1,30.491,32.5H21.249a1.25,1.25,0,0,1,0-2.5h6.117a2.6,2.6,0,0,0,2.6-2.078A2.5,2.5,0,0,0,27.5,25H15a9.2,9.2,0,0,0-5.789,2.055L5.578,30H1.25A1.254,1.254,0,0,0,0,31.249v7.5A1.254,1.254,0,0,0,1.25,40H29.124A5.006,5.006,0,0,0,32.249,38.9l11.812-9.453A2.5,2.5,0,0,0,44.162,25.632Z" transform="translate(0 1.313)" fill="#6e7488"/>
  <path id="Icon_ionic-ios-heart" data-name="Icon ionic-ios-heart" d="M20.855,3.937H20.8a6.543,6.543,0,0,0-5.463,2.99,6.543,6.543,0,0,0-5.462-2.99H9.815a6.5,6.5,0,0,0-6.44,6.5,14,14,0,0,0,2.749,7.63,48.166,48.166,0,0,0,9.212,8.872,48.166,48.166,0,0,0,9.211-8.872,14,14,0,0,0,2.749-7.63A6.5,6.5,0,0,0,20.855,3.937Z" transform="translate(7.165 -3.938)" fill="#fc9d1b"/>
</svg>
