<svg xmlns="http://www.w3.org/2000/svg" width="26.25" height="22.505" viewBox="0 0 26.25 22.505">
  <g id="Icon_ionic-ios-log-out" data-name="Icon ionic-ios-log-out" transform="translate(-3.125 -5.375)">
    <path id="Path_53" data-name="Path 53" d="M21.938,23.879a.937.937,0,0,0-.984.875,1.205,1.205,0,0,1-1.266,1.125H6.609a1.205,1.205,0,0,1-1.266-1.125V8.5A1.205,1.205,0,0,1,6.609,7.375H19.688A1.205,1.205,0,0,1,20.953,8.5a.991.991,0,0,0,1.969,0,3.071,3.071,0,0,0-3.234-2.876H6.609A3.071,3.071,0,0,0,3.375,8.5V24.755A3.071,3.071,0,0,0,6.609,27.63H19.688a3.071,3.071,0,0,0,3.234-2.876A.937.937,0,0,0,21.938,23.879Z" fill="#4a1b58" stroke="#4a1b58" stroke-width="0.5"/>
    <path id="Path_54" data-name="Path 54" d="M26.22,11.061a1.106,1.106,0,0,0-.7-.233,1.087,1.087,0,0,0-.7.233.691.691,0,0,0,0,1.126l4.584,3.65H11.391a.908.908,0,0,0-.984.8.908.908,0,0,0,.984.8H29.433l-4.472,3.645a.7.7,0,0,0,0,1.126l.007.006a1.158,1.158,0,0,0,.689.222,1.073,1.073,0,0,0,.7-.233l5.808-4.685a.982.982,0,0,0,0-1.66Z" transform="translate(-3.243)" fill="#4a1b58"/>
  </g>
</svg>
