<svg xmlns="http://www.w3.org/2000/svg" width="20" height="20.001" viewBox="0 0 20 20.001">
  <path id="Icon_ionic-ios-person" data-name="Icon ionic-ios-person" d="M24.491,24c-.375-1.656-2.516-2.464-3.255-2.724a24.271,24.271,0,0,0-2.714-.521,2.757,2.757,0,0,1-1.255-.578,10.971,10.971,0,0,1-.083-2.568,7.726,7.726,0,0,0,.594-1.13,14.579,14.579,0,0,0,.438-1.974s.427,0,.578-.75a7.38,7.38,0,0,0,.385-1.745c-.031-.6-.359-.583-.359-.583a9.132,9.132,0,0,0,.354-2.672c.047-2.141-1.63-4.25-4.667-4.25-3.078,0-4.719,2.109-4.672,4.25a9.525,9.525,0,0,0,.349,2.672s-.328-.016-.359.583a7.379,7.379,0,0,0,.385,1.745c.146.75.578.75.578.75a14.579,14.579,0,0,0,.438,1.974,7.726,7.726,0,0,0,.594,1.13,10.971,10.971,0,0,1-.083,2.568,2.757,2.757,0,0,1-1.255.578,24.271,24.271,0,0,0-2.714.521c-.74.26-2.88,1.068-3.255,2.724a.416.416,0,0,0,.411.505H24.084A.416.416,0,0,0,24.491,24Z" transform="translate(-4.501 -4.5)"/>
</svg>
