<svg xmlns="http://www.w3.org/2000/svg" width="31.509" height="32.173" viewBox="0 0 31.509 32.173">
  <path id="Icon_material-call" data-name="Icon material-call" d="M9.327,14.454a19.8,19.8,0,0,0,8.787,8.421l2.933-2.811a1.367,1.367,0,0,1,1.36-.307,15.814,15.814,0,0,0,4.76.728A1.31,1.31,0,0,1,28.5,21.763v4.459A1.31,1.31,0,0,1,27.167,27.5C14.647,27.5,4.5,17.776,4.5,5.778A1.31,1.31,0,0,1,5.833,4.5H10.5a1.31,1.31,0,0,1,1.333,1.278,13.965,13.965,0,0,0,.76,4.562,1.245,1.245,0,0,1-.333,1.3L9.327,14.454Z" transform="translate(5.278 36.544) rotate(-107)" fill="none" stroke="#4a1b58" stroke-width="2"/>
</svg>
