<svg xmlns="http://www.w3.org/2000/svg" width="57.143" height="40" viewBox="0 0 57.143 40">
  <path id="Icon_awesome-money-check-alt" data-name="Icon awesome-money-check-alt" d="M54.286,2.25H2.857A2.857,2.857,0,0,0,0,5.107V39.393A2.857,2.857,0,0,0,2.857,42.25H54.286a2.857,2.857,0,0,0,2.857-2.857V5.107A2.857,2.857,0,0,0,54.286,2.25ZM15.714,28.668v1.439a.714.714,0,0,1-.714.714H13.571a.714.714,0,0,1-.714-.714V28.653a5.112,5.112,0,0,1-2.8-1.013.715.715,0,0,1-.051-1.084l1.049-1a.733.733,0,0,1,.9-.065,2.15,2.15,0,0,0,1.145.332h2.51a1.123,1.123,0,0,0,1.054-1.178,1.165,1.165,0,0,0-.783-1.137L11.866,22.3a4.041,4.041,0,0,1-2.82-3.874,3.976,3.976,0,0,1,3.81-4.024V12.964a.714.714,0,0,1,.714-.714H15a.714.714,0,0,1,.714.714v1.454a5.106,5.106,0,0,1,2.8,1.013.715.715,0,0,1,.051,1.084l-1.049,1a.733.733,0,0,1-.9.065,2.142,2.142,0,0,0-1.145-.332h-2.51A1.123,1.123,0,0,0,11.9,18.428a1.165,1.165,0,0,0,.783,1.137L16.7,20.77a4.041,4.041,0,0,1,2.82,3.874A3.975,3.975,0,0,1,15.714,28.668ZM37.143,27.25a.714.714,0,0,1-.714.714h-10a.714.714,0,0,1-.714-.714V25.821a.714.714,0,0,1,.714-.714h10a.714.714,0,0,1,.714.714Zm14.286,0a.714.714,0,0,1-.714.714H43.571a.714.714,0,0,1-.714-.714V25.821a.714.714,0,0,1,.714-.714h7.143a.714.714,0,0,1,.714.714Zm0-8.571a.714.714,0,0,1-.714.714H26.429a.714.714,0,0,1-.714-.714V17.25a.714.714,0,0,1,.714-.714H50.714a.714.714,0,0,1,.714.714Z" transform="translate(0 -2.25)" fill="#6e7488"/>
</svg>
