<svg xmlns="http://www.w3.org/2000/svg" width="53.2" height="40.5" viewBox="0 0 53.2 40.5">
  <g id="Icon_ionic-md-paper" data-name="Icon ionic-md-paper" transform="translate(-2.25 -4)">
    <path id="Path_3" data-name="Path 3" d="M42.852,4.5H17.288a1.645,1.645,0,0,0-1.5,1.719V9.5H6.2A4.19,4.19,0,0,0,2.25,13.875V35.49c0,4.958,3.665,9.01,8.083,9.01H36.62c4.239,0,7.735-3.844,7.735-8.542V6.167A1.6,1.6,0,0,0,42.852,4.5ZM15.784,12.833v20H11.836v-18a5.582,5.582,0,0,0-.31-2Zm-1.6,26.6a5.283,5.283,0,0,1-3.806,1.729A4.87,4.87,0,0,1,6.761,39.5a5.967,5.967,0,0,1-1.5-4.01V14.833a1.9,1.9,0,0,1,1.786-2,1.9,1.9,0,0,1,1.786,2V34.5a1.6,1.6,0,0,0,1.5,1.667h5.4A5.694,5.694,0,0,1,14.186,39.438Zm27.162-3.479a5.474,5.474,0,0,1-1.4,3.677,4.476,4.476,0,0,1-3.327,1.531H16.846a9.268,9.268,0,0,0,1.945-5.677V7.938H41.348Z" fill="#6e7488"/>
    <path id="Path_4" data-name="Path 4" d="M17.438,9.563h11.25V13.5H17.438Z" transform="translate(7.954 2.854)" fill="#6e7488"/>
    <path id="Path_5" data-name="Path 5" d="M17.438,15.75h11.25V18H17.438Z" transform="translate(7.954 5.909)" fill="#6e7488"/>
    <path id="Path_6" data-name="Path 6" d="M17.438,20.25h11.25V22.5H17.438Z" transform="translate(7.954 8.273)" fill="#6e7488"/>
    <path id="Path_7" data-name="Path 7" d="M28.688,24.75H17.438s0,2.25-.562,2.25H27.33C28.688,27,28.688,25.523,28.688,24.75Z" transform="translate(7.878 10.636)" fill="#6e7488"/>
  </g>
  <circle id="Ellipse_41" data-name="Ellipse 41" cx="10" cy="10" r="10" transform="translate(33.2)" fill="#fd9b11"/>
  <path id="Icon_material-done" data-name="Icon material-done" d="M10.115,17.893,6.354,14.131,5.1,15.385,10.115,20.4,20.861,9.654,19.607,8.4l-4.075,4.075Z" transform="translate(29.219 -4.9)" fill="#fafff5"/>
</svg>
