<svg xmlns="http://www.w3.org/2000/svg" width="26" height="17.153" viewBox="0 0 26 17.153">
  <path id="Icon_payment-card" data-name="Icon payment-card" d="M14.305,30.945l-1.887-.259q-2.8-.383-5.6-.768c-.513-.071-.513-.077-.513-.6,0-2.381,0-4.762,0-7.142a.429.429,0,0,1,.27-.458Q11.845,19.073,17.1,16.4a.359.359,0,0,1,.4.017c2.149,1.294,4.3,2.58,6.45,3.877a1.469,1.469,0,0,0,.807.221c1.816-.01,3.632-.005,5.448-.005A1.96,1.96,0,0,1,32.3,22.55q.02,4.47,0,8.941A1.962,1.962,0,0,1,30.227,33.5q-6.947,0-13.893,0a2,2,0,0,1-2.027-1.983c0-.181,0-.363,0-.574Zm2-7.115c.075.007.134.017.194.017,1.382,0,2.764.008,4.145,0a2.591,2.591,0,0,1,1.745.566A2.486,2.486,0,0,1,20.8,28.819c-1.408,0-2.816,0-4.223,0-.217,0-.312.041-.3.285.02.469,0,.939.011,1.408a1.012,1.012,0,0,0,.884,1,3.653,3.653,0,0,0,.495.014c3.806,0,7.613-.011,11.419.011a1.143,1.143,0,0,0,1.251-1.241c-.033-2.216-.013-4.432-.012-6.648a1.019,1.019,0,0,0-1.15-1.155q-5.879,0-11.759,0a1.054,1.054,0,0,0-1.1,1.339Z" transform="translate(-6.305 -16.35)" fill="#4a1b58"/>
</svg>
