<svg xmlns="http://www.w3.org/2000/svg" width="26" height="17.03" viewBox="0 0 26 17.03">
  <path id="Icon_payment-credit-card" data-name="Icon payment-credit-card" d="M30.435,16.35a1.846,1.846,0,0,1,1.786,1.786V31.594a1.846,1.846,0,0,1-1.786,1.786H8.007a1.626,1.626,0,0,1-1.246-.54,1.625,1.625,0,0,1-.54-1.246V18.136a1.626,1.626,0,0,1,.54-1.246,1.628,1.628,0,0,1,1.246-.54H30.435ZM8.007,17.762q-.208,0-.249.125a.359.359,0,0,0-.125.249v2.492H30.808V18.136a.359.359,0,0,0-.125-.249q-.042-.125-.249-.125H8.007ZM30.435,31.968q.207,0,.249-.125a.359.359,0,0,0,.125-.249V24.865H7.633v6.729a.359.359,0,0,0,.125.249q.041.125.249.125H30.435ZM9.045,30.555V29.1h2.866v1.454Zm4.278,0V29.1H17.56v1.454Z" transform="translate(-6.221 -16.35)" fill="#4a1b58"/>
</svg>
