<svg xmlns="http://www.w3.org/2000/svg" width="40.921" height="53.987" viewBox="0 0 40.921 53.987">
  <path id="Icon_awesome-mobile-alt" data-name="Icon awesome-mobile-alt" d="M21.25,0H3.75A3.751,3.751,0,0,0,0,3.75v32.5A3.751,3.751,0,0,0,3.75,40h17.5A3.751,3.751,0,0,0,25,36.25V3.75A3.751,3.751,0,0,0,21.25,0ZM12.5,37.5A2.5,2.5,0,1,1,15,35,2.5,2.5,0,0,1,12.5,37.5Zm8.75-8.437a.94.94,0,0,1-.937.938H4.688a.94.94,0,0,1-.937-.937V4.688a.94.94,0,0,1,.938-.937H20.313a.94.94,0,0,1,.938.938Z" transform="translate(0 13.987)" fill="#6e7488"/>
  <path id="Icon_material-sim-card" data-name="Icon material-sim-card" d="M21.821,5.3A2.157,2.157,0,0,0,19.852,3H11.936L6,9.9V23.7A2.164,2.164,0,0,0,7.979,26H19.862a2.157,2.157,0,0,0,1.969-2.3ZM10.947,22.55H8.968v-2.3h1.979Zm7.915,0H16.883v-2.3h1.979Zm-7.915-4.6H8.968v-4.6h1.979Zm3.958,4.6H12.926v-4.6H14.9Zm0-6.9H12.926v-2.3H14.9Zm3.958,2.3H16.883v-4.6h1.979Z" transform="translate(30.179 -6.597) rotate(53)" fill="#f5a118"/>
</svg>
