<svg xmlns="http://www.w3.org/2000/svg" width="28" height="20.2" viewBox="0 0 28 20.2">
  <path id="Icon_awesome-user-friends" data-name="Icon awesome-user-friends" d="M7.8,11.35A4.55,4.55,0,1,0,3.25,6.8,4.548,4.548,0,0,0,7.8,11.35Zm3.12,1.3h-.337a6.282,6.282,0,0,1-5.566,0H4.68A4.681,4.681,0,0,0,0,17.33V18.5a1.951,1.951,0,0,0,1.95,1.95h11.7A1.951,1.951,0,0,0,15.6,18.5V17.33A4.681,4.681,0,0,0,10.92,12.65Zm8.58-1.3a3.9,3.9,0,1,0-3.9-3.9A3.9,3.9,0,0,0,19.5,11.35Zm1.95,1.3H21.3a5.123,5.123,0,0,1-3.591,0H17.55a4.512,4.512,0,0,0-2.263.626A5.945,5.945,0,0,1,16.9,17.33v1.56c0,.089-.02.175-.024.26H24.05A1.951,1.951,0,0,0,26,17.2a4.548,4.548,0,0,0-4.55-4.55Z" transform="translate(1 -1.25)" fill="none" stroke="#4a1b58" stroke-width="2"/>
</svg>
