<svg xmlns="http://www.w3.org/2000/svg" width="28.115" height="22.803" viewBox="0 0 28.115 22.803">
  <path id="Icon_awesome-user-edit" data-name="Icon awesome-user-edit" d="M9.1,10.4A5.2,5.2,0,1,0,3.9,5.2,5.2,5.2,0,0,0,9.1,10.4Zm3.64,1.3h-.678a7.072,7.072,0,0,1-5.923,0H5.46A5.462,5.462,0,0,0,0,17.161v1.69A1.951,1.951,0,0,0,1.95,20.8H13.118a1.951,1.951,0,0,1-.106-.865l.276-2.474.049-.451.321-.321,3.14-3.14A5.4,5.4,0,0,0,12.74,11.7Zm1.84,5.9L14.3,20.082a.647.647,0,0,0,.715.715l2.474-.276,5.6-5.6-2.913-2.913-5.6,5.6Zm11.136-6.679-1.54-1.54a.973.973,0,0,0-1.373,0L21.268,10.92l-.167.167L24.018,14l1.7-1.7a.978.978,0,0,0,0-1.377Z" transform="translate(1 1)" fill="none" stroke="#4a1b58" stroke-width="2"/>
</svg>
